name rise38.3101peak57.3503fall81.6963.mot
datacolumns 19
datarows 12
range 22.79325100000000 22.81158700000000
endheader
time	ground_force1_vx	ground_force1_vy	ground_force1_vz	ground_force1_px	ground_force1_py	ground_force1_pz	ground_force2_vx	ground_force2_vy	ground_force2_vz	ground_force2_px	ground_force2_py	ground_force2_pz	ground_torque1_x	ground_torque1_y	ground_torque1_z	ground_torque2_x	ground_torque2_y	ground_torque2_z	
22.79325100000000	-10.48932200000000	691.47628599999996	42.80584500000000	0.21311600000000	0.00000000000000	0.11812800000000	0.00000000000000	0.00000000000000	0.00000000000000	0.00000000000000	0.00000000000000	0.00000000000000	0.00000000000000	20.60853100000000	0.00000000000000	0.00000000000000	0.00000000000000	0.00000000000000	
22.79493000000000	-11.03169900000000	693.34267599999998	42.90238700000000	0.21234000000000	0.00000000000000	0.11818600000000	0.00000000000000	0.00000000000000	0.00000000000000	0.00000000000000	0.00000000000000	0.00000000000000	0.00000000000000	20.74417300000000	0.00000000000000	0.00000000000000	0.00000000000000	0.00000000000000	
22.79658200000000	-11.59356900000000	695.22014000000001	42.99983700000000	0.21151700000000	0.00000000000000	0.11824800000000	0.00000000000000	0.00000000000000	0.00000000000000	0.00000000000000	0.00000000000000	0.00000000000000	0.00000000000000	20.88239400000000	0.00000000000000	0.00000000000000	0.00000000000000	0.00000000000000	
22.79824700000000	-12.17503200000000	697.10735099999999	43.09831900000000	0.21064800000000	0.00000000000000	0.11831200000000	0.00000000000000	0.00000000000000	0.00000000000000	0.00000000000000	0.00000000000000	0.00000000000000	0.00000000000000	21.02325100000000	0.00000000000000	0.00000000000000	0.00000000000000	0.00000000000000	
22.79992200000000	-12.77612600000000	699.00310700000000	43.19797800000000	0.20973300000000	0.00000000000000	0.11838100000000	0.00000000000000	0.00000000000000	0.00000000000000	0.00000000000000	0.00000000000000	0.00000000000000	0.00000000000000	21.16680300000000	0.00000000000000	0.00000000000000	0.00000000000000	0.00000000000000	
22.80158800000000	-13.39682300000000	700.90632100000005	43.29897600000000	0.20877300000000	0.00000000000000	0.11845200000000	0.00000000000000	0.00000000000000	0.00000000000000	0.00000000000000	0.00000000000000	0.00000000000000	0.00000000000000	21.31311900000000	0.00000000000000	0.00000000000000	0.00000000000000	0.00000000000000	
22.80325500000000	-14.03703400000000	702.81602599999997	43.40148900000000	0.20777100000000	0.00000000000000	0.11852700000000	0.00000000000000	0.00000000000000	0.00000000000000	0.00000000000000	0.00000000000000	0.00000000000000	0.00000000000000	21.46226600000000	0.00000000000000	0.00000000000000	0.00000000000000	0.00000000000000	
22.80491600000000	-14.69660900000000	704.73137099999997	43.50571200000000	0.20672600000000	0.00000000000000	0.11860500000000	0.00000000000000	0.00000000000000	0.00000000000000	0.00000000000000	0.00000000000000	0.00000000000000	0.00000000000000	21.61431500000000	0.00000000000000	0.00000000000000	0.00000000000000	0.00000000000000	
22.80659300000000	-15.37533500000000	706.65161799999998	43.61184900000000	0.20564200000000	0.00000000000000	0.11868700000000	0.00000000000000	0.00000000000000	0.00000000000000	0.00000000000000	0.00000000000000	0.00000000000000	0.00000000000000	21.76933800000000	0.00000000000000	0.00000000000000	0.00000000000000	0.00000000000000	
22.80824800000000	-16.07293900000000	708.57614100000001	43.72012200000000	0.20451900000000	0.00000000000000	0.11877200000000	0.00000000000000	0.00000000000000	0.00000000000000	0.00000000000000	0.00000000000000	0.00000000000000	0.00000000000000	21.92740400000000	0.00000000000000	0.00000000000000	0.00000000000000	0.00000000000000	
22.80991400000000	-16.78909000000000	710.50442299999997	43.83076200000000	0.20336100000000	0.00000000000000	0.11885900000000	0.00000000000000	0.00000000000000	0.00000000000000	0.00000000000000	0.00000000000000	0.00000000000000	0.00000000000000	22.08858300000000	0.00000000000000	0.00000000000000	0.00000000000000	0.00000000000000	
22.81158700000000	-17.52339600000000	712.43604900000003	43.94401300000000	0.20216800000000	0.00000000000000	0.11895000000000	0.00000000000000	0.00000000000000	0.00000000000000	0.00000000000000	0.00000000000000	0.00000000000000	0.00000000000000	22.25293800000000	0.00000000000000	0.00000000000000	0.00000000000000	0.00000000000000	
